<svg width="1452" height="93" viewBox="0 0 1452 93" fill="none" xmlns="http://www.w3.org/2000/svg">
<path fill-rule="evenodd" clip-rule="evenodd" d="M1436.58 27.4421L1436.58 27.4419C1435.65 27.3093 1434.71 27.1764 1433.79 26.9744C1431.65 26.5003 1429.6 26.4876 1427.48 27.6323C1427.31 27.7253 1427.14 27.8197 1426.96 27.9142C1426.22 28.3208 1425.48 28.7282 1424.69 29.0221C1424.18 29.2126 1423.68 29.4036 1423.18 29.5925C1419.34 31.0496 1415.83 32.3779 1411.8 32.3068C1410.37 32.2817 1408.92 32.3219 1407.61 32.8867C1406.85 33.2161 1406.08 33.5866 1405.32 33.9573C1401.21 35.9446 1397.09 37.9422 1392.93 33.6953C1386.73 28.0641 1380.65 27.9692 1374.54 27.8738C1372.82 27.847 1371.1 27.8202 1369.38 27.6703C1368.5 27.5937 1367.64 27.3491 1366.81 27.0445C1356.49 23.2604 1346.07 25.3118 1335.73 27.3973C1335.06 27.5321 1334.38 27.5907 1333.7 27.6154C1330.45 27.733 1327.98 28.4876 1325.44 29.2612C1324.49 29.5517 1323.53 29.845 1322.52 30.1082C1320.68 30.5853 1318.87 31.9048 1317.49 33.2067C1316.14 34.4846 1314.38 34.04 1312.55 33.5753C1311.05 33.1936 1309.49 32.7984 1308.06 33.3336L1307.94 33.3794C1304.19 34.7773 1300.32 36.2244 1296.64 35.071C1293.18 33.9835 1289.85 30.9543 1287.49 28.1948C1286.12 26.5943 1284.74 25.5434 1283.21 27.9189C1282.12 29.3386 1281.01 29.6595 1279.89 29.4996C1278.41 29.2873 1276.93 29.6825 1275.5 30.0657C1273.52 30.5975 1271.61 31.1065 1269.89 29.9371C1269.19 29.463 1268.53 28.6208 1267.8 27.6894C1267.52 27.3296 1267.22 26.9564 1266.91 26.5861C1266.38 25.9444 1265.89 25.2487 1265.4 24.5522L1265.4 24.5506C1264.72 23.5716 1264.03 22.591 1263.2 21.7565C1262.22 20.7721 1261.24 21.1249 1260.24 21.8108C1257.32 23.8213 1253.24 24.2346 1249.71 24.4377C1246.33 24.6315 1242.96 24.221 1239.58 23.8104C1235.55 23.3194 1231.51 22.8285 1227.48 23.3709C1227.09 23.4229 1226.71 23.524 1226.33 23.625C1225.94 23.7292 1225.55 23.8335 1225.15 23.8839C1223.12 24.1396 1221.04 22.8313 1218.96 21.5187C1218.3 21.1005 1217.63 20.6819 1216.97 20.3132C1211.77 17.4252 1202.52 21.4223 1197.77 25.0007C1196.97 25.6018 1196.17 26.2527 1195.37 26.906L1195.37 26.9097C1194.44 27.6649 1193.52 28.4231 1192.58 29.1112C1191.96 29.5632 1191.34 30.1992 1190.71 30.8389C1189.15 32.4233 1187.57 34.0296 1186.04 32.9152C1185.68 32.6513 1185.32 32.2935 1184.96 31.9361C1183.78 30.7695 1182.62 29.609 1181.41 31.7473C1181.29 31.9671 1181.17 32.1897 1181.04 32.4126L1181.04 32.4163C1180.18 33.981 1179.31 35.5659 1177.75 36.3962C1173.51 38.6447 1169.31 37.9393 1165.05 37.2222C1161.29 36.5909 1157.48 35.9505 1153.54 37.3079C1152.91 37.5227 1152.28 37.6971 1151.64 37.8569C1150.64 38.1065 1149.65 38.4991 1148.67 38.8888C1147.55 39.3327 1146.44 39.7728 1145.33 39.9929C1141.74 40.7114 1134.22 36.2999 1132.67 32.9765C1131.7 30.9087 1129.46 28.2558 1127.6 26.0642L1127.6 26.0637L1127.6 26.0624C1127 25.3524 1126.44 24.6908 1125.98 24.1133C1122.7 20.0067 1119.31 20.3979 1115.85 22.5357C1113.17 24.194 1110.05 25.0682 1106.9 25.1534C1103.76 25.2384 1100.65 25.8985 1097.55 26.5574L1097.54 26.5577C1095.8 26.9278 1094.06 27.2975 1092.31 27.5645C1089.77 28.1914 1087.22 27.9256 1084.66 27.6585C1081.89 27.3693 1079.1 27.0785 1076.28 27.9168L1076.26 27.9223C1073.78 28.6609 1071.22 29.4201 1068.68 28.9394C1066.25 28.4805 1064.05 28.2306 1061.8 29.1014C1061.21 29.3265 1060.63 29.5635 1060.05 29.8014L1060.05 29.8019C1057.95 30.655 1055.83 31.5195 1053.62 31.8834C1052.43 32.0803 1051.24 32.3462 1050.05 32.6115C1048 33.0689 1045.97 33.5244 1043.94 33.6204C1039.69 33.8213 1034.12 33.528 1030.76 30.9219C1030.31 30.5734 1029.86 30.203 1029.41 29.8318L1029.41 29.8294C1026.23 27.2198 1023.01 24.5678 1019.96 29.1178L1019.83 29.3031C1018.85 30.7759 1017.8 32.3373 1016.11 32.8262C1013.11 33.6924 1010.12 32.6296 1007.13 31.5676C1006.64 31.393 1006.14 31.2183 1005.65 31.0523C1000.21 29.2166 991.23 27.0353 986.796 30.68C986.062 31.2837 985.327 31.9609 984.592 32.6382C982.9 34.1987 981.207 35.7592 979.515 36.4203C976.225 37.7057 972.368 35.7175 968.65 33.8008C966.758 32.8257 964.902 31.8691 963.175 31.3715C962.668 31.2254 962.161 31.0721 961.654 30.9188C960.856 30.6778 960.059 30.4368 959.261 30.2237C956.739 29.5494 953.984 28.5035 951.189 27.4425C947.515 26.0479 943.773 24.6272 940.401 23.9902C938.446 23.6209 936.543 24.2069 934.491 24.8668C932.255 25.5859 929.889 25.1424 927.625 24.5144C924.622 23.6812 921.565 23.7555 918.553 24.3806C917.851 24.5264 917.132 24.6511 916.409 24.7764C914.929 25.0332 913.434 25.2926 912.034 25.7416C910.495 26.2352 909.05 26.1888 907.405 21.4337C906.937 19.7836 906.486 18.4636 906.046 17.4269C904.136 12.9257 894.653 13.6999 889.995 15.1862C889.663 15.292 889.349 15.3777 889.044 15.4608C888.305 15.6624 887.623 15.8484 886.89 16.2676C886.72 16.3648 886.549 16.4629 886.377 16.5617L886.143 16.6965C879.779 20.3546 872.095 24.7712 866.129 16.797C865.386 15.804 864.595 14.8046 863.513 14.1982C862.787 13.791 862.098 13.4941 861.416 13.1998C859.794 12.5007 858.207 11.8166 856.232 9.70364C853.394 7.30398 851.106 8.64217 848.7 10.0495C847.695 10.6374 846.669 11.2373 845.574 11.5819C843.756 12.2122 841.967 13.5349 840.17 14.8637L840.17 14.8641C838.76 15.9067 837.345 16.953 835.907 17.6713C832.714 19.2663 826.822 21.7002 824.401 19.0789C823.72 18.3426 822.988 17.4912 822.224 16.6043L822.224 16.6037L822.223 16.603C820.447 14.5396 818.506 12.2841 816.676 10.8391C814.917 9.45097 813.03 9.81978 811.272 11.454C810.467 12.2021 809.648 13.0826 808.808 13.9849C807.175 15.7407 805.464 17.579 803.634 18.6852C803.084 19.0179 802.418 19.0414 801.759 19.0647C801.533 19.0727 801.307 19.0807 801.087 19.1012C799.934 19.2084 798.754 19.6995 797.563 20.1949C794.964 21.2762 792.316 22.3782 789.794 19.5555C787.483 16.338 785.23 17.4892 783.018 18.6195C780.966 19.668 778.95 20.6985 776.954 18.2088C772.299 13.0659 767.1 8.78999 761.737 10.379C761.099 10.5683 760.539 10.9361 759.979 11.3047C759.682 11.5002 759.384 11.696 759.074 11.8655C756.594 13.2211 754.088 11.7495 751.589 10.2822C749.55 9.0855 747.517 7.89171 745.507 8.23697C744.333 8.43878 743.245 8.97627 742.156 9.51427C741.206 9.98343 740.256 10.453 739.246 10.7007C737.022 11.2465 734.798 11.9188 732.569 12.5925C728.974 13.6794 725.367 14.7698 721.727 15.3383C721.112 15.3508 720.496 15.3616 719.878 15.3724C713.869 15.4779 707.768 15.5849 701.556 17.2239C700.866 17.4062 700.212 17.7013 699.56 17.996C699.433 18.0534 699.307 18.1107 699.179 18.1672C695.269 19.9046 691.354 18.5552 687.502 17.2278C686.168 16.7681 684.842 16.311 683.526 15.9857C682.452 15.7202 681.384 15.402 680.414 14.8701C679.61 14.4295 678.863 14.0023 678.144 13.591L678.143 13.5903C676.833 12.8413 675.615 12.1447 674.315 11.515C672.103 10.4437 669.584 10.8197 667.127 11.1866C666.795 11.2361 666.465 11.2854 666.137 11.331C664.451 11.565 662.799 11.4478 661.173 11.3325C658.96 11.1755 656.797 11.022 654.666 11.7631C653.455 12.1841 652.555 13.1551 651.683 14.0958L651.647 14.1338C649.461 16.4909 647.294 17.2379 645.013 18.0244L645.012 18.0247C644.602 18.1661 644.188 18.3088 643.769 18.4623C642.369 18.9764 640.907 19.3499 639.416 19.3972C639.057 19.4086 638.696 19.4208 638.332 19.433L638.328 19.4332C636.893 19.4816 635.428 19.5311 634.017 19.5342C633.09 19.5363 632.176 19.3597 631.268 19.1713C626.789 18.2417 621.731 19.294 616.973 20.2838C615.249 20.6425 613.564 20.9931 611.96 21.2381C610.037 21.532 608.188 22.2906 606.347 23.0457C605.271 23.4871 604.198 23.9272 603.115 24.2728C600.905 24.9777 598.671 24.5628 596.344 24.1306C595.245 23.9264 594.124 23.7183 592.976 23.6228C592.602 23.5917 592.226 23.5447 591.848 23.4975C590.851 23.3729 589.845 23.2474 588.869 23.4128C587.93 23.5719 587.087 24.0298 586.289 24.4635C584.474 25.4506 582.889 26.312 580.926 23.2376C580.741 22.9476 580.508 22.6859 580.274 22.4241C580 22.1162 579.725 21.8082 579.529 21.4542C578.877 20.2776 576.405 17.7985 575.151 17.3118C573.578 16.7012 571.825 17.7701 570.333 18.6983C569.53 19.1982 568.566 19.2223 567.62 19.2032C566.556 19.1816 566.198 19.7041 565.693 20.443C565.459 20.7857 565.193 21.1749 564.809 21.578C564.095 22.3289 563.3 23.023 562.5 23.6816C560.268 25.5193 557.927 25.0629 555.505 24.5909C553.006 24.104 550.421 23.6003 547.783 25.58C544.366 27.523 541.027 26.7346 537.734 25.9571C535.297 25.3818 532.885 24.8124 530.486 25.36C529.996 25.4718 529.508 25.5972 529.02 25.7227L529.018 25.723C528.595 25.8319 528.171 25.9408 527.746 26.0407C526.024 26.4458 524.302 27.1853 522.578 27.9261C520.608 28.7724 518.635 29.6203 516.652 29.9729C515.488 30.1799 514.281 30.3136 513.068 30.4481C510.472 30.7357 507.844 31.0269 505.531 32.0457C500.443 34.2862 495.46 34.7922 490.095 34.0359C488.755 33.8469 487.391 33.8783 486.042 33.986C483.612 34.1798 480.998 33.9068 478.401 33.6357C475.935 33.3782 473.486 33.1224 471.226 33.2699C470.974 33.2864 470.715 33.2892 470.456 33.292C469.529 33.3019 468.601 33.3119 467.958 33.9495C466.645 35.2525 464.642 36.1273 462.86 36.9057C462.574 37.0304 462.295 37.1525 462.025 37.2735C456.24 39.8638 450.167 40.2775 444.27 37.6998C440.327 36.114 436.367 36.0729 432.415 36.7232C429.646 37.1788 426.817 36.6588 424.176 35.7108C419.055 33.8732 413.641 34.4905 408.726 36.9306C407.363 37.6075 406.293 38.7354 405.434 39.9916C401.108 46.3129 397.53 48.5964 393.183 46.4787C390.586 45.2138 387.853 44.0494 384.965 44.014C382.707 43.9864 380.359 43.8228 377.998 43.6584C373.096 43.317 368.139 42.9718 363.825 43.8306C362.634 44.1261 361.898 44.2353 361.316 44.0636C359.561 43.5458 357.173 41.4239 355.294 39.7539C354.678 39.2059 354.116 38.7066 353.65 38.3286C352.473 37.3757 350.584 37.4345 349.011 37.4834L349.01 37.4835C348.882 37.4874 348.756 37.4914 348.633 37.4947C348.013 37.5112 347.4 37.6023 346.793 37.6926C344.23 38.0732 341.763 38.4399 339.257 33.1464C338.955 32.5086 338.575 31.7539 337.986 31.3651C335.033 29.4155 331.213 30.2245 327.609 30.9876C326.913 31.135 326.224 31.2807 325.552 31.4045C324.204 31.6527 322.858 31.2274 321.549 29.395C321.45 29.2568 321.352 29.1169 321.254 28.9769C320.544 27.9656 319.825 26.9403 318.737 26.374C315.318 24.5952 312.142 26.0755 308.91 27.5819C307.411 28.2804 305.901 28.9845 304.348 29.3719C304.203 29.408 304.058 29.4439 303.913 29.4798C302.923 29.7249 301.929 29.9713 300.964 30.2982C294.94 32.3405 289.019 30.9978 283.097 29.6549C281.802 29.3612 280.507 29.0675 279.211 28.8092C276.295 28.2283 273.781 26.4978 271.73 24.3456C271.275 23.8674 270.857 23.5084 270.461 23.245C267.397 21.2055 263.101 19.0202 260.303 21.4121C259.144 22.403 257.503 22.0322 256.163 21.3057C254.88 20.6106 253.591 19.2856 252.304 17.9618C251.82 17.4647 251.337 16.9678 250.854 16.5044C249.031 14.7541 246.343 14.0484 243.672 13.3472C241.835 12.8651 240.007 12.3851 238.473 11.5693C232.352 8.31448 225.585 5.70192 219.346 9.70718C216.389 11.6056 213.056 13.2343 209.543 13.1511C206.803 13.0861 203.847 13.1218 201.363 13.1517C200.766 13.1589 200.196 13.1658 199.664 13.1709C198.357 13.1833 196.91 11.9656 196.3 10.8101C196.043 10.3248 195.771 9.84601 195.498 9.36703C194.847 8.22219 194.195 7.07631 193.762 5.83821C193.703 5.67242 193.645 5.51853 193.585 5.37595C192.853 3.61915 190.566 3.32316 188.329 3.03374C187.222 2.89046 186.128 2.74879 185.24 2.4323C182.893 1.59518 180.533 2.19348 178.126 2.80378C176.737 3.1561 175.332 3.51243 173.904 3.59889C173.656 3.61392 173.406 3.62521 173.156 3.6365C171.881 3.69418 170.601 3.75208 169.46 4.31068C169.09 4.49167 168.729 4.68113 168.373 4.86743C166.029 6.09515 163.946 7.18576 161.595 4.81147C161.446 4.66049 161.297 4.50782 161.147 4.3548C159.672 2.84613 158.163 1.30334 156.089 1.01104C153.35 0.625068 150.533 0.891143 147.728 1.15608C146.353 1.28601 144.98 1.41566 143.621 1.46801C142.717 1.50284 141.847 1.12096 140.975 0.738351C140.192 0.394745 139.408 0.0505492 138.596 0.00705971C136.071 -0.128252 133.301 1.70231 131.769 3.71398C131.408 4.1877 131.009 4.68015 130.534 5.12349C130.148 5.48301 129.755 5.84042 129.333 6.15577C127.492 7.52984 125.301 6.84292 123.17 6.17516C122.664 6.01659 122.161 5.85911 121.668 5.73055C120.99 5.55405 120.295 5.42701 119.599 5.29989C118.589 5.11548 117.578 4.93088 116.62 4.59482C111.35 2.74746 106.081 1.48628 100.811 4.4333C99.6911 5.05982 98.5363 5.65158 97.2886 5.95268C96.0237 6.2579 94.8068 6.5389 93.6231 6.81224L93.6229 6.81228C88.3925 8.02003 83.8091 9.0784 78.59 11.4178C77.6933 11.8198 76.7502 12.11 75.7867 12.3032C73.7973 12.702 71.8449 13.2593 69.8927 13.8166C65.6578 15.0256 61.4238 16.2343 56.8144 15.8238C56.0287 15.7538 55.2339 15.7368 54.4395 15.7197L54.4394 15.7197C53.7955 15.7059 53.1519 15.6921 52.5138 15.6501C51.2612 15.5677 49.9018 15.2723 48.5202 14.972C46.5122 14.5357 44.4575 14.0891 42.6162 14.2717C40.6125 14.4705 39.4187 16.3376 38.631 18.1907C37.047 21.9169 36.3267 21.4826 34.9268 20.6385L34.8229 20.5759C34.7405 20.5264 34.6578 20.4725 34.5743 20.4183L34.5743 20.4182C34.2117 20.1824 33.8366 19.9384 33.424 20.0043C32.9005 20.088 32.3729 20.5809 31.84 21.0788L31.84 21.0788C31.6476 21.2586 31.4546 21.439 31.2608 21.601C30.5416 22.2021 29.606 22.0628 28.6493 21.9203C28.2267 21.8573 27.8 21.7938 27.386 21.7931C24.5439 21.7888 21.8221 22.9193 19.0713 24.0617L19.0713 24.0617C17.681 24.6391 16.2833 25.2196 14.8591 25.6582C10.8464 26.8938 5.11548 30.005 3.90368 34.0249C2.72692 37.9286 1.30802 42.5259 0.114516 46.2994C-0.512295 48.2812 1.54429 55.2971 3.59914 56.8537L3.59914 93H1442.6V62.6708C1442.84 61.9319 1442.92 61.1456 1442.99 60.3643C1443.63 53.2429 1447.83 34.5573 1450.12 26.7045C1450.46 26.2736 1450.77 25.7656 1451.05 25.1696C1451.48 24.2503 1451.4 22.9774 1451.02 23.9215C1450.78 24.5349 1450.47 25.4902 1450.12 26.7045C1447.67 29.8053 1443.79 28.9184 1440.44 28.151L1440.44 28.1507C1439.72 27.9882 1439.04 27.8311 1438.39 27.7183C1437.79 27.6138 1437.19 27.528 1436.58 27.4421Z" fill="white"/>
</svg>
